<?xml version="1.0" standalone="no"?>
<!DOCTYPE svg PUBLIC "-//W3C//DTD SVG 20010904//EN"
 "http://www.w3.org/TR/2001/REC-SVG-20010904/DTD/svg10.dtd">
<svg version="1.0" xmlns="http://www.w3.org/2000/svg"
 width="10.000000pt" height="22.000000pt" viewBox="0 0 10.000000 22.000000"
 preserveAspectRatio="xMidYMid meet">

<g transform="translate(0.000000,22.000000) scale(0.100000,-0.100000)"
fill="#000000" stroke="none">
<path d="M0 185 c0 -19 5 -35 10 -35 6 0 10 10 10 23 0 13 5 28 12 35 9 9 7
12 -10 12 -18 0 -22 -6 -22 -35z"/>
<path d="M77 173 c-12 -11 -8 -23 8 -23 8 0 15 7 15 15 0 16 -12 20 -23 8z"/>
<path d="M0 50 c0 -27 5 -50 10 -50 6 0 10 23 10 50 0 28 -4 50 -10 50 -5 0
-10 -22 -10 -50z"/>
<path d="M70 50 c0 -38 4 -50 15 -50 11 0 15 12 15 50 0 38 -4 50 -15 50 -11
0 -15 -12 -15 -50z"/>
</g>
</svg>
