<?xml version="1.0" standalone="no"?>
<!DOCTYPE svg PUBLIC "-//W3C//DTD SVG 20010904//EN"
 "http://www.w3.org/TR/2001/REC-SVG-20010904/DTD/svg10.dtd">
<svg version="1.0" xmlns="http://www.w3.org/2000/svg"
 width="14.000000pt" height="22.000000pt" viewBox="0 0 14.000000 22.000000"
 preserveAspectRatio="xMidYMid meet">

<g transform="translate(0.000000,22.000000) scale(0.100000,-0.100000)"
fill="#000000" stroke="none">
<path d="M0 165 c0 -41 4 -55 14 -55 8 0 23 -3 33 -7 11 -4 7 3 -10 16 -31 25
-35 56 -10 83 15 17 15 18 -5 18 -20 0 -22 -5 -22 -55z"/>
<path d="M113 202 c28 -31 14 -92 -20 -92 -9 0 -14 -2 -11 -5 3 -4 17 -3 32 1
24 6 26 10 26 60 0 49 -2 54 -22 54 -20 0 -20 -1 -5 -18z"/>
<path d="M52 163 c2 -10 10 -18 18 -18 8 0 16 8 18 18 2 12 -3 17 -18 17 -15
0 -20 -5 -18 -17z"/>
<path d="M1 37 c0 -34 2 -38 9 -20 5 12 16 25 25 30 14 8 12 11 -10 21 -25 11
-25 11 -24 -31z"/>
<path d="M117 69 c-16 -10 -17 -13 -4 -27 8 -10 17 -24 20 -32 3 -8 6 4 6 28
1 23 0 42 -1 42 -2 0 -11 -5 -21 -11z"/>
<path d="M60 15 c-11 -13 -8 -15 16 -15 16 0 25 4 19 8 -5 4 -13 11 -16 15 -3
4 -12 1 -19 -8z"/>
</g>
</svg>
