<?xml version="1.0" standalone="no"?>
<!DOCTYPE svg PUBLIC "-//W3C//DTD SVG 20010904//EN"
 "http://www.w3.org/TR/2001/REC-SVG-20010904/DTD/svg10.dtd">
<svg version="1.0" xmlns="http://www.w3.org/2000/svg"
 width="24.000000pt" height="14.000000pt" viewBox="0 0 24.000000 14.000000"
 preserveAspectRatio="xMidYMid meet">

<g transform="translate(0.000000,14.000000) scale(0.100000,-0.100000)"
fill="#000000" stroke="none">
<path d="M65 109 c19 -35 30 -32 21 6 -4 14 -13 25 -21 25 -14 0 -14 -4 0 -31z"/>
<path d="M145 110 c0 -37 8 -38 23 -5 15 34 15 35 -5 35 -13 0 -18 -8 -18 -30z"/>
<path d="M0 52 l0 -52 42 0 42 0 -26 28 c-14 15 -32 38 -41 52 -17 24 -17 24
-17 -28z"/>
<path d="M222 88 c-16 -16 -15 -33 3 -48 13 -11 15 -7 15 24 0 40 -1 41 -18
24z"/>
<path d="M150 15 c0 -8 7 -15 16 -15 14 0 14 3 4 15 -7 8 -14 15 -16 15 -2 0
-4 -7 -4 -15z"/>
</g>
</svg>
