<svg version="1.1" xmlns="http://www.w3.org/2000/svg" xmlns:xlink="http://www.w3.org/1999/xlink" width="16" height="20"><defs/><g><path fill="rgb(255,138,1)" stroke="none" paint-order="stroke fill markers" fill-rule="evenodd" d=" M 1.9998397827148438 1.9989557266235352 C 1.9998397827148438 1.9989557266235352 2.9998245239257812 1.9989557266235352 2.9998245239257812 1.9989557266235352 C 2.9998245239257812 1.9989557266235352 2.9998245239257812 18.998600959777832 2.9998245239257812 18.998600959777832 C 2.9998245239257812 18.998600959777832 1.9998397827148438 18.998600959777832 1.9998397827148438 18.998600959777832 C 1.9998397827148438 18.998600959777832 1.9998397827148438 1.9989557266235352 1.9998397827148438 1.9989557266235352 Z M 5.999664306640625 8.99887466430664 C 5.999664306640625 8.99887466430664 6.9998779296875 8.99887466430664 6.9998779296875 8.99887466430664 C 6.9998779296875 8.99887466430664 6.9998779296875 18.998600959777832 6.9998779296875 18.998600959777832 C 6.9998779296875 18.998600959777832 5.999664306640625 18.998600959777832 5.999664306640625 18.998600959777832 C 5.999664306640625 18.998600959777832 5.999664306640625 8.99887466430664 5.999664306640625 8.99887466430664 Z M 13.999885559082031 10.99893045425415 C 13.999885559082031 10.99893045425415 14.999870300292969 10.99893045425415 14.999870300292969 10.99893045425415 C 14.999870300292969 10.99893045425415 14.999870300292969 18.998600959777832 14.999870300292969 18.998600959777832 C 14.999870300292969 18.998600959777832 13.999885559082031 18.998600959777832 13.999885559082031 18.998600959777832 C 13.999885559082031 18.998600959777832 13.999885559082031 10.99893045425415 13.999885559082031 10.99893045425415 Z M 9.999832153320312 3.9984588623046875 C 9.999832153320312 3.9984588623046875 10.99981689453125 3.9984588623046875 10.99981689453125 3.9984588623046875 C 10.99981689453125 3.9984588623046875 10.99981689453125 18.998600959777832 10.99981689453125 18.998600959777832 C 10.99981689453125 18.998600959777832 9.999832153320312 18.998600959777832 9.999832153320312 18.998600959777832 C 9.999832153320312 18.998600959777832 9.999832153320312 3.9984588623046875 9.999832153320312 3.9984588623046875 Z"/></g></svg>